<?xml version="1.0" encoding="UTF-8" standalone="no"?><!DOCTYPE svg PUBLIC "-//W3C//DTD SVG 1.1//EN" "http://www.w3.org/Graphics/SVG/1.1/DTD/svg11.dtd"><svg width="100%" height="100%" viewBox="0 0 326 479" version="1.1" xmlns="http://www.w3.org/2000/svg" xmlns:xlink="http://www.w3.org/1999/xlink" xml:space="preserve" xmlns:serif="http://www.serif.com/" style="fill-rule:evenodd;clip-rule:evenodd;stroke-linejoin:round;stroke-miterlimit:2;"><path id="status_alt" d="M138.448,260.959c59.919,-0 108.566,48.647 108.566,108.567c0,59.919 -48.647,108.566 -108.566,108.566c-59.92,0 -108.567,-48.647 -108.567,-108.566c-0,-59.92 48.647,-108.567 108.567,-108.567Zm-69.224,-182.273c38.205,0 69.224,31.018 69.224,69.224c-0,38.205 -31.019,69.224 -69.224,69.224c-38.206,-0 -69.224,-31.019 -69.224,-69.224c0,-38.206 31.018,-69.224 69.224,-69.224Zm177.79,-78.686c43.428,-0 78.686,35.258 78.686,78.686c0,43.428 -35.258,78.686 -78.686,78.686c-43.428,0 -78.686,-35.258 -78.686,-78.686c0,-43.428 35.258,-78.686 78.686,-78.686Z" style="fill:#fff;"/></svg>