<?xml version="1.0" encoding="UTF-8" standalone="no"?><!DOCTYPE svg PUBLIC "-//W3C//DTD SVG 1.1//EN" "http://www.w3.org/Graphics/SVG/1.1/DTD/svg11.dtd"><svg width="100%" height="100%" viewBox="0 0 454 467" version="1.1" xmlns="http://www.w3.org/2000/svg" xmlns:xlink="http://www.w3.org/1999/xlink" xml:space="preserve" xmlns:serif="http://www.serif.com/" style="fill-rule:evenodd;clip-rule:evenodd;stroke-linejoin:round;stroke-miterlimit:2;"><path id="heal" d="M384.348,237.22c-9.178,24.122 -24.677,48.978 -45.891,72.304c-37.166,43.199 -111.851,76.344 -171.874,95.7c-42.303,-46.774 -90.41,-112.821 -100.997,-168.815c-16.389,-75.269 1.33,-141.397 44.298,-165.322c42.969,-23.925 111.186,-5.646 127.576,69.622c51.828,-56.989 120.045,-38.71 145.295,3.493c11.203,18.726 13.948,42.162 9.007,67.414c-0.778,-0.677 -1.723,-1.189 -2.795,-1.468l-30.002,-7.79l8.76,-31.68c1.056,-3.818 -1.2,-7.726 -5.034,-8.722l-13.893,-3.607c-3.834,-0.995 -7.804,1.296 -8.859,5.114l-8.76,31.68l-30.002,-7.79c-3.731,-0.968 -7.595,1.261 -8.622,4.976l-3.723,13.463c-1.027,3.716 1.168,7.519 4.9,8.487l30.001,7.79l-8.759,31.68c-1.056,3.819 1.199,7.727 5.033,8.722l13.893,3.608c3.834,0.995 7.804,-1.297 8.86,-5.115l8.76,-31.68l30.001,7.79c0.95,0.247 1.909,0.286 2.827,0.146Z" style="fill:#fff;"/></svg>