<?xml version="1.0" encoding="UTF-8" standalone="no"?><!DOCTYPE svg PUBLIC "-//W3C//DTD SVG 1.1//EN" "http://www.w3.org/Graphics/SVG/1.1/DTD/svg11.dtd"><svg width="100%" height="100%" viewBox="0 0 285 477" version="1.1" xmlns="http://www.w3.org/2000/svg" xmlns:xlink="http://www.w3.org/1999/xlink" xml:space="preserve" xmlns:serif="http://www.serif.com/" style="fill-rule:evenodd;clip-rule:evenodd;stroke-linejoin:round;stroke-miterlimit:2;"><path id="magic" d="M55.211,476.649c-35.071,-16.697 -57.747,-56.709 -54.984,-105.219l0,0c3.816,-66.993 42.603,-108.013 98.702,-127.593c25.601,-8.935 42.415,-14.804 68.034,-23.745c34.361,-11.993 93.489,-78.334 87.216,-128.474c-7.731,-61.788 67.989,126.549 6.075,265.551c-13.986,31.399 -49.405,84.037 -78.084,104.694c12.869,-41.62 12.745,-82.648 -40.356,-99.067c-34.858,-10.778 -75.009,4.011 -89.325,45.147c-6.469,18.587 -3.467,52.491 2.722,68.706Zm148.571,-466.351c-0,-0 -60.976,35.577 -54.237,84.745c6.739,49.167 12.203,59.74 -38.754,88.894c-0,-0 104.963,-14.684 91.076,-73.964c-0,0 -17.348,-71.137 21.269,-109.973l-19.354,10.298Z" style="fill:#fff;"/></svg>