<?xml version="1.0" encoding="UTF-8" standalone="no"?><!DOCTYPE svg PUBLIC "-//W3C//DTD SVG 1.1//EN" "http://www.w3.org/Graphics/SVG/1.1/DTD/svg11.dtd"><svg width="100%" height="100%" viewBox="0 0 438 472" version="1.1" xmlns="http://www.w3.org/2000/svg" xmlns:xlink="http://www.w3.org/1999/xlink" xml:space="preserve" xmlns:serif="http://www.serif.com/" style="fill-rule:evenodd;clip-rule:evenodd;stroke-linejoin:round;stroke-miterlimit:2;"><path id="mobility" d="M229.637,113.827l11.973,-11.49l-2.746,-2.877c-5.752,-6.025 -5.529,-15.587 0.496,-21.338l21.835,-20.843c6.026,-5.752 15.587,-5.529 21.339,0.496l101.088,105.901c5.751,6.025 5.529,15.587 -0.496,21.338l-21.835,20.843c-6.026,5.752 -15.588,5.529 -21.339,-0.496l-2.669,-2.796l-50.308,48.281l23.626,24.715c38.668,6.545 68.153,40.227 68.153,80.742c-0,24.763 -11.016,46.974 -28.412,61.997l-122.15,0c-5.132,-2.082 -9.916,-5.257 -13.989,-9.518l-94.812,-99.178c-1.133,-1.186 -2.18,-2.423 -3.139,-3.701c-5.519,-1.01 -10.572,-4.357 -13.568,-9.606l-19.519,-34.197c-5.387,-9.437 -2.098,-21.472 7.339,-26.859l41.881,-23.905c0.29,-0.165 0.582,-0.322 0.876,-0.471c0.631,-1.647 1.393,-3.255 2.284,-4.808l-76.476,-0c-5.428,-0 -9.835,-4.408 -9.835,-9.836c-0,-5.429 4.407,-9.836 9.835,-9.836l94.963,0l18.35,-17.61l-70.077,-0c-5.428,-0 -9.835,-4.408 -9.835,-9.836c-0,-5.429 4.407,-9.836 9.835,-9.836l90.575,-0l16.259,-15.604l-64.278,0c-5.429,0 -9.836,-4.407 -9.836,-9.836c0,-5.428 4.407,-9.836 9.836,-9.836l84.776,0Z" style="fill:#fff;"/></svg>