<?xml version="1.0" encoding="UTF-8" standalone="no"?><!DOCTYPE svg PUBLIC "-//W3C//DTD SVG 1.1//EN" "http://www.w3.org/Graphics/SVG/1.1/DTD/svg11.dtd"><svg width="100%" height="100%" viewBox="0 0 217 475" version="1.1" xmlns="http://www.w3.org/2000/svg" xmlns:xlink="http://www.w3.org/1999/xlink" xml:space="preserve" xmlns:serif="http://www.serif.com/" style="fill-rule:evenodd;clip-rule:evenodd;stroke-linejoin:round;stroke-miterlimit:2;"><g><path d="M213.297,49.026l-29.119,-49.026l-49.458,27.761c-5.666,2.778 -10.231,8.081 -12.057,14.894l-69.092,257.856l-30.437,-8.155c-6.733,-1.804 -13.759,2.554 -15.68,9.726l-6.964,25.99c-1.922,7.172 1.984,14.459 8.716,16.263l47.393,12.699l-23.897,89.187c-2.346,8.753 2.421,17.646 10.637,19.848l29.774,7.978c8.216,2.201 16.791,-3.117 19.136,-11.87l23.898,-89.187l48.55,13.009c6.733,1.804 13.759,-2.555 15.68,-9.727l6.964,-25.989c1.922,-7.172 -1.984,-14.46 -8.716,-16.264l-31.594,-8.465l69.092,-257.856c1.609,-6.007 0.788,-12.061 -1.84,-17l0.009,0.002l-0.071,-0.118c-0.287,-0.532 -0.595,-1.051 -0.924,-1.556Z" style="fill:#fff;"/></g></svg>