<?xml version="1.0" encoding="UTF-8" standalone="no"?><!DOCTYPE svg PUBLIC "-//W3C//DTD SVG 1.1//EN" "http://www.w3.org/Graphics/SVG/1.1/DTD/svg11.dtd"><svg width="100%" height="100%" viewBox="0 0 457 472" version="1.1" xmlns="http://www.w3.org/2000/svg" xmlns:xlink="http://www.w3.org/1999/xlink" xml:space="preserve" xmlns:serif="http://www.serif.com/" style="fill-rule:evenodd;clip-rule:evenodd;stroke-linejoin:round;stroke-miterlimit:2;"><path id="special" d="M246.496,70.372c3.624,-4.474 9.542,-6.397 15.103,-4.907c5.562,1.491 9.726,6.115 10.627,11.802l16.124,101.765l96.19,36.931c5.375,2.063 9.032,7.097 9.334,12.847c0.301,5.75 -2.81,11.139 -7.94,13.753l-91.802,46.783l-5.399,102.894c-0.302,5.75 -3.959,10.783 -9.335,12.847c-5.375,2.063 -11.462,0.77 -15.533,-3.301l-72.862,-72.853l-99.525,26.662c-5.562,1.49 -11.48,-0.433 -15.103,-4.908c-3.624,-4.475 -4.275,-10.663 -1.661,-15.794l46.771,-91.807l-56.111,-86.416c-3.136,-4.829 -3.136,-11.052 0,-15.881c3.136,-4.829 8.82,-7.36 14.508,-6.459l101.767,16.112l64.847,-80.07Z" style="fill:#fff;"/></svg>