<?xml version="1.0" encoding="UTF-8" standalone="no"?><!DOCTYPE svg PUBLIC "-//W3C//DTD SVG 1.1//EN" "http://www.w3.org/Graphics/SVG/1.1/DTD/svg11.dtd"><svg width="100%" height="100%" viewBox="0 0 318 475" version="1.1" xmlns="http://www.w3.org/2000/svg" xmlns:xlink="http://www.w3.org/1999/xlink" xml:space="preserve" xmlns:serif="http://www.serif.com/" style="fill-rule:evenodd;clip-rule:evenodd;stroke-linejoin:round;stroke-miterlimit:2;"><path id="buff" d="M138.967,392.235c2.655,0.587 4.278,0.681 4.278,0.681c-1.439,-0.291 -2.864,-0.517 -4.278,-0.681c-14.002,-3.092 -56.725,-19.871 -41.683,-108.698l3.31,-24.209c0,0 -32.676,114.373 -100.594,97.782c0,-0 64.432,29.867 48.708,117.676c0,0 34.956,-88.967 90.259,-82.551Zm172.996,-102.815c3.631,0.802 5.849,0.931 5.849,0.931c-1.967,-0.398 -3.916,-0.707 -5.849,-0.931c-19.141,-4.227 -77.545,-27.166 -56.982,-148.596l4.525,-33.095c-0,0 -44.67,156.354 -137.518,133.672c-0,0 88.082,40.83 66.587,160.871c-0,0 47.786,-121.624 123.388,-112.852Zm-96.341,-156.513c2.655,0.587 4.278,0.681 4.278,0.681c-1.439,-0.292 -2.864,-0.518 -4.278,-0.681c-14.002,-3.092 -56.725,-19.872 -41.683,-108.698l3.31,-24.209c-0,-0 -32.676,114.373 -100.594,97.781c-0,0 64.432,29.867 48.708,117.677c0,0 34.956,-88.968 90.259,-82.551Z" style="fill:#fff;"/></svg>