<?xml version="1.0" encoding="UTF-8" standalone="no"?><!DOCTYPE svg PUBLIC "-//W3C//DTD SVG 1.1//EN" "http://www.w3.org/Graphics/SVG/1.1/DTD/svg11.dtd"><svg width="100%" height="100%" viewBox="0 0 5596 1758" version="1.1" xmlns="http://www.w3.org/2000/svg" xmlns:xlink="http://www.w3.org/1999/xlink" xml:space="preserve" xmlns:serif="http://www.serif.com/" style="fill-rule:evenodd;clip-rule:evenodd;stroke-linejoin:round;stroke-miterlimit:2;"><g><path d="M3379.46,12.882c-18.453,33.347 -36.759,63.813 -52.503,95.547c-19.772,39.844 -34.831,81.297 -40.356,126.182c-0.982,7.959 -17.369,14.025 -26.641,20.962c-1.794,-1.462 -3.587,-2.922 -5.378,-4.384c1.744,-15.347 3.25,-30.728 5.278,-46.038c4.841,-36.553 -9.325,-63.409 -40.528,-82.459c-37.275,-22.76 -78.919,-30.428 -121.091,-30.363c-46.531,0.072 -93.053,5.61 -139.568,8.928c-3.432,0.244 -6.779,1.757 -10.144,2.741c-85.96,25.188 -98.047,87.266 -59.138,158.738c20.816,38.24 54.61,66.275 92.275,86.875c65.569,35.859 132.838,68.631 199.528,102.431c74.116,37.562 147.857,75.337 210.525,131.512c139.275,124.844 142.622,302.116 82.304,425.794c-1.947,3.994 -3.669,8.1 -6.347,14.041l266.772,-0c-4.169,12.362 -7.354,21.868 -10.6,31.353c-0.557,1.625 -1.613,3.097 -2.05,4.74c-8.341,31.241 -8.329,31.241 -40.732,31.241c-79.618,-0.003 -159.237,0.35 -238.847,-0.319c-14.731,-0.125 -24.075,4.566 -34.475,15.244c-164.053,168.475 -361.106,234.138 -592.309,181.703c-81.219,-18.419 -149.722,-62.281 -199.95,-133.912c11.834,-14.778 24.097,-30.091 37.609,-46.96c3.516,5.313 5.9,8.335 7.672,11.678c46.797,88.307 124.285,129.635 219.8,143.947c161.603,24.213 300.053,-24.584 419.766,-132.343c11.956,-10.766 22.122,-23.516 35.709,-38.129c-8.284,-0.45 -12.547,-0.884 -16.809,-0.884c-224.8,-0.034 -449.6,-0.028 -674.4,-0.028c-42.125,-0 -84.278,0.922 -126.363,-0.388c-21.09,-0.653 -37.34,8.672 -55.8,16.019c-23.775,9.466 -45.906,23.544 -74.518,23.531c-41.291,-0.015 -81.928,-2.065 -118.772,-20.109c-54.828,-26.853 -107.431,-13.984 -160.813,1.938c-2.14,0.637 -4.309,1.175 -11.925,3.24c9.744,-14.353 15.75,-26.012 24.328,-35.303c23.991,-25.984 33.363,-56.037 33.194,-91.184c-0.715,-149.06 -0.2,-298.122 -0.469,-447.182c-0.025,-13.928 -1.078,-28.128 -3.937,-41.725c-8.272,-39.371 -33.8,-59.99 -74.156,-61.362c-7.603,-0.259 -15.45,-1.225 -22.782,0.197c-15.14,2.931 -24.234,-3.722 -33.087,-20.631c74.531,-40.841 149.034,-81.669 224.178,-122.844c10.806,11.556 17.591,23.681 16.784,40.428c-5.568,116.034 -12.475,232.056 -15.081,348.169c-2.131,95.034 1.178,190.187 1.841,285.287c0.09,12.9 5.644,21.166 16.037,28.8c24.794,18.213 50.525,28.556 82.644,26.813c46.109,-2.507 92.466,-0.272 138.703,-0.994c7.875,-0.125 15.594,-5.203 23.531,-7.481c13.16,-3.775 26.247,-8.585 39.71,-10.366c26.29,-3.478 52.297,-3.037 75.462,13.419c4.269,3.034 10.541,4.584 15.891,4.587c240.022,0.222 480.044,0.1 720.062,0.482c11.341,0.018 15.56,-3.844 17.107,-14.207c9.193,-61.537 1.822,-121.178 -21.488,-178.631c-33.49,-82.556 -91.028,-146.422 -165.556,-192.359c-81.978,-50.532 -167.831,-94.813 -252.15,-141.541c-49.216,-27.272 -97.469,-55.669 -137.325,-96.328c-82.947,-84.613 -77.766,-202.113 12.847,-278.781c50.612,-42.825 110.281,-68.228 173.25,-85.588c95.206,-26.25 192.362,-40.3 291.356,-35.794c33.738,1.535 67.256,7.813 101.925,12.05" style="fill:#040404;fill-rule:nonzero;"/><path d="M9.884,1472.51c-2.728,-3.985 -6.306,-9.21 -9.884,-14.438c2.25,1.925 4.5,3.85 6.75,5.775c24.775,-28.022 48.025,-57.587 74.644,-83.737c54.115,-53.16 79.6,-117.7 79.7,-192.138c0.35,-268.303 -0.147,-536.606 -0.91,-804.909c-0.018,-6.332 -5.403,-14.916 -10.881,-18.603c-41.053,-27.622 -82.762,-54.279 -123.728,-85.069c275.928,-1.863 551.856,-3.728 829.081,-5.6c-29.706,40.275 -14.225,83.269 -10.937,125.353c1.228,15.697 2.634,31.419 2.831,47.144c0.078,6.384 -2.844,12.803 -8.403,19.109c-0.888,-3.409 -1.988,-6.781 -2.625,-10.241c-5.725,-31.14 -25.066,-52.018 -51.5,-67.118c-52.369,-29.913 -110.603,-43.785 -168.722,-35.988c-80.972,10.863 -161.503,1.475 -242.069,5.906c-5.712,0.313 -11.456,0.041 -18.059,0.041l-0,299.116c157.294,2.928 314.6,21.084 472.012,-2.741c0.9,2.013 1.8,4.022 2.697,6.031c-24.915,15.016 -48.984,31.722 -74.912,44.732c-74.835,37.55 -155.788,47.056 -238.191,47.881c-51.422,0.515 -102.856,0.097 -155.434,0.097c-0.491,5.309 -1.141,9.118 -1.156,12.934c-0.51,123.919 -1.069,247.838 -1.366,371.759c-0.119,49.269 -21.153,88.366 -59.513,117.497c-95.865,72.807 -192.515,144.585 -289.425,217.207" style="fill:#020202;fill-rule:nonzero;"/><path d="M992.129,789.561c12.143,87.844 55.134,154.716 128.394,200.734c94.562,59.4 197.187,73.088 305.049,45.535c39,-9.963 77.172,-23.11 116.001,-33.8c7.018,-1.935 15.384,1 23.128,1.687l1.012,7.985c-42.959,20.575 -85.462,42.178 -129.037,61.362c-29.332,12.916 -59.841,23.444 -90.394,33.269c-143.284,46.078 -315.688,-5.316 -402.828,-118.069c-71.478,-92.487 -94.094,-256.653 -0.756,-363.484c54.228,-62.069 122.974,-101.194 199.637,-127.997c100.809,-35.241 204.144,-48.403 310.441,-33.791c7.512,1.035 14.965,2.606 22.381,4.219c4.403,0.956 8.681,2.481 14.847,4.287c-56.2,51.544 -68.497,120.935 -82.575,191.713c-9.675,-0.525 -19.072,-1.034 -28.01,-1.519c-0.443,-3.622 -0.99,-4.844 -0.64,-5.697c19.631,-47.865 8.678,-77.968 -37.291,-102.962c-32.353,-17.591 -67.994,-21.725 -103.606,-22.669c-40.978,-1.087 -81.656,3.603 -120.497,18.5c-69.406,26.622 -101.922,81.819 -116.453,150.528c-3.944,18.65 -5.569,37.788 -8.466,58.172c35.166,0 68.35,0.734 101.491,-0.141c88.25,-2.334 176.519,-4.546 264.687,-8.721c20.4,-0.966 40.403,-9.729 60.653,-14.632c11.075,-2.684 22.288,-4.8 33.438,-7.172c0.887,2.166 1.775,4.329 2.666,6.494c-3.472,4.203 -7.775,7.969 -10.272,12.688c-11.863,22.44 -25.535,44.331 -33.897,68.059c-4.844,13.741 -9.338,24.434 -23.747,30.016c-43.034,-43.107 -100.75,-50.241 -156.756,-53.457c-78.569,-4.506 -157.591,-1.137 -238.6,-1.137" style="fill:#040404;fill-rule:nonzero;"/><path d="M4210.18,750.123c-83.912,45.682 -168.812,91.657 -263.703,106.341c-134.353,20.788 -255.006,-12.737 -347.744,-117.9c-81.975,-92.956 -103.706,-266.416 -10.012,-373.394c53.19,-60.734 120.087,-99.984 194.912,-126.506c94.75,-33.581 192.319,-49.391 293.069,-38.909c19.431,2.022 38.631,6.287 61.097,10.047c-54.031,48.187 -67.919,110.975 -80.884,174.096c-4.46,21.704 -9.579,24.225 -32.244,14.307c18.894,-63.019 4.078,-95.119 -60.663,-114.775c-85.175,-25.86 -169.615,-23.219 -245.256,29.325c-51.656,35.878 -68.603,92.443 -77.178,151.722c-1.556,10.771 -2.184,21.675 -3.347,33.578c48.35,-0 95.019,1.168 141.609,-0.263c77.691,-2.39 155.369,-5.79 232.963,-10.319c16.991,-0.99 33.575,-8.603 50.4,-12.956c11.547,-2.99 23.187,-5.622 34.787,-8.412c0.988,2.209 1.975,4.422 2.963,6.631c-3.778,4.731 -7.447,9.547 -11.35,14.172c-17.653,20.934 -29.344,44.384 -35.028,71.519c-2.088,9.95 -11.138,18.446 -17.853,28.918c-44.46,-45.068 -99.547,-52.943 -153.385,-56.4c-77.468,-4.978 -155.384,-2.972 -233.109,-3.818c-3.909,-0.044 -7.828,1.128 -12.85,1.903c7.778,66.381 35.578,121.95 84.028,165.64c87.709,79.091 192.363,106.741 307.55,88.347c53.338,-8.519 105.169,-26.825 157.347,-41.853c11.287,-3.25 18.556,-3.666 23.881,8.959" style="fill:#050505;fill-rule:nonzero;"/><path d="M4608.73,348.039c-71.338,98.863 -125.784,203.663 -182.009,310.285c12.3,-1.697 21.962,-3.122 31.643,-4.353c55.663,-7.072 110.757,-13.713 166.988,0.793c34.05,8.782 70.225,9.7 105.559,12.897c8.981,0.813 18.4,-3.172 28.516,-5.122c-46.185,-107.978 -83.903,-216.25 -150.697,-314.5m188.619,504.797c5.006,-8.106 5.987,-11.25 8.125,-12.919c21.128,-16.475 18.153,-36.268 8.678,-57.387c-16.91,-37.681 -33.538,-75.488 -51.022,-114.903c-83.009,45.431 -168.359,30.5 -253.991,15.122c-25.212,-4.528 -50.962,-6.46 -76.559,-8.125c-5.116,-0.332 -13.038,4.662 -15.631,9.4c-16.525,30.209 -31.663,61.168 -47.803,91.593c-7.65,14.425 -1.625,26.075 6.303,37.175c7.359,10.307 15.922,19.754 26.303,32.45c-25.394,4.51 -47.553,9.247 -69.947,12.238c-33.022,4.409 -66.191,7.8 -99.356,11.003c-4.3,0.416 -9.947,-1.872 -13.044,-4.884c-1.544,-1.5 -0.034,-8.635 2.303,-11.253c101.188,-113.485 185.791,-238.857 261.225,-370.21c42.656,-74.278 80.647,-151.369 117.775,-228.612c15.213,-31.647 22.609,-67.041 34.038,-102.185c15.175,0.603 20.678,13.557 25.768,27.785c48.025,134.181 102.782,265.584 166.272,393.193c37.769,75.916 79.613,149.616 136.035,213.794c22.893,26.038 47.021,50.619 84.046,56.344c3.266,0.503 5.407,8.275 10.654,16.937c-89.179,-3.443 -172.816,1.754 -260.172,-6.556" style="fill:#050505;fill-rule:nonzero;"/><path d="M5587.28,757.293c11.653,6.662 8.637,13.731 2.047,21.403c-31.772,36.972 -73.928,56.259 -119.482,69.234c-42.737,12.175 -86.103,8.472 -128.681,0.013c-67.728,-13.46 -134.925,-23.819 -201.615,6.319c-0.985,-1.394 -1.966,-2.788 -2.95,-4.182c6.737,-10.115 12.265,-21.35 20.44,-30.137c24.525,-26.372 34.016,-56.981 33.841,-92.747c-0.732,-148.394 -0.213,-296.791 -0.463,-445.188c-0.025,-13.94 -0.919,-28.14 -3.669,-41.762c-7.981,-39.5 -33.181,-60.384 -73.415,-62.291c-7.591,-0.359 -15.491,-1.462 -22.753,0.094c-15.107,3.234 -24.494,-3.212 -32.916,-17.847c69.503,-49.14 149.316,-80.74 222.269,-126.1c11.212,11.244 17.89,23.247 17.119,39.894c-5.141,110.753 -11.222,221.494 -14.019,332.312c-2.356,93.307 0.009,186.719 -1.181,280.069c-0.397,31.097 12.143,49.716 39.328,64.503c83.19,45.241 167.168,52.285 253.909,11.975c4.153,-1.928 8.331,-3.803 12.191,-5.562" style="fill:#030303;fill-rule:nonzero;"/><path d="M1518.82,418.023c74.975,-41.075 149.581,-81.95 224.731,-123.122c10.66,11.275 17.45,23.525 16.657,40.244c-5.207,109.634 -11.394,219.256 -14.178,328.959c-2.4,94.513 -0.225,189.134 -1.107,283.7c-0.272,29.225 10.863,47.822 36.982,62.294c84.753,46.95 170.346,53.99 258.718,11.903c2.638,-1.256 5.222,-2.628 7.869,-3.872c0.453,-0.212 1.094,-0.028 2.103,-0.028c8.653,5.119 10.394,11.784 2.731,19.384c-9.925,9.844 -19.393,20.457 -30.581,28.669c-68.959,50.628 -146.131,58.544 -227.375,40.984c-64.94,-14.034 -129.353,-20.706 -192.881,7.544c-1.103,-1.215 -2.203,-2.434 -3.306,-3.65c6.312,-9.662 11.328,-20.559 19.175,-28.756c26.322,-27.488 35.903,-59.806 35.693,-97.425c-0.803,-146.716 -0.225,-293.438 -0.484,-440.156c-0.025,-14.535 -1.047,-29.297 -3.731,-43.553c-7.344,-39.01 -33.269,-60.835 -73.094,-62.885c-7.591,-0.39 -15.428,-1.269 -22.778,0.091c-14.644,2.709 -24.878,-2.353 -35.144,-20.325" style="fill:#040404;fill-rule:nonzero;"/><path d="M4586.69,1024.58l214.7,-0c-0,19.403 0.565,38.434 -0.557,57.365c-0.187,3.169 -7.687,8.422 -11.843,8.46c-63.107,0.546 -126.219,0.618 -189.322,-0.116c-4.369,-0.05 -12.038,-7.063 -12.388,-11.313c-1.418,-17.337 -0.59,-34.859 -0.59,-54.396" style="fill:#080808;fill-rule:nonzero;"/><path d="M4106.44,1024.73c-3.672,11.171 -7.225,20.175 -9.497,29.49c-1.741,7.135 -2.737,14.688 -2.497,22.003c0.328,10.103 -2.406,14.978 -13.684,14.888c-50.331,-0.406 -100.666,0.069 -150.988,-0.588c-4.481,-0.059 -12.481,-5.712 -12.722,-9.193c-1.278,-18.46 -0.6,-37.057 -0.6,-56.6l189.988,-0Z" style="fill:#090909;fill-rule:nonzero;"/><path d="M5126.66,1022.52c15.138,6.863 27.554,13.525 40.688,18.163c13.566,4.787 27.916,7.309 41.756,11.39c8.975,2.65 17.569,6.563 26.478,9.478c17.353,5.679 34.753,11.241 52.257,16.432c4.893,1.453 10.34,0.972 15.315,2.237c3.835,0.975 7.328,3.291 10.972,5.013c-3.775,2.187 -7.537,6.253 -11.319,6.272c-43.853,0.228 -87.709,-0.247 -131.562,-0.357c-44.022,-0.112 -44.035,-0.025 -44.572,-44.712c-0.084,-6.956 -0.013,-13.91 -0.013,-23.916" style="fill:#151515;fill-rule:nonzero;"/><path d="M4324.08,1023.71l77.328,-0c0,19.925 0.675,38.5 -0.568,56.95c-0.247,3.696 -7.713,9.746 -11.994,9.875c-29.203,0.878 -58.444,0.659 -87.663,0.225c-3.934,-0.06 -10.512,-2.685 -11.112,-5.235c-0.969,-4.125 1.075,-9.734 3.484,-13.734c9.138,-15.175 18.935,-29.96 30.525,-48.081" style="fill:#0c0c0c;fill-rule:nonzero;"/></g><g><path d="M1661.85,1188.01l92.227,0c29.512,0 55.439,3.792 77.778,11.375c22.339,7.583 39.76,19.06 52.262,34.431c12.502,15.371 18.753,34.944 18.753,58.718c-0,18.036 -3.587,33.612 -10.76,46.729c-7.173,13.116 -16.191,23.364 -27.053,30.742c-10.863,7.378 -22.647,12.092 -35.354,14.142c21.315,2.459 40.068,8.812 56.259,19.06c16.191,10.247 28.898,23.569 38.12,39.965c9.223,16.396 13.834,35.251 13.834,56.566c0,25.004 -6.661,46.421 -19.982,64.252c-13.322,17.83 -32.28,31.357 -56.874,40.58c-24.594,9.222 -53.491,13.834 -86.693,13.834l-62.715,-0c0,-0 0.103,-2.152 0.308,-6.456c0.205,-4.304 0.307,-8.608 0.307,-12.912l0,-6.456l43.654,0c19.266,0 36.071,-3.587 50.418,-10.76c14.346,-7.173 25.516,-18.138 33.509,-32.894c7.993,-14.756 11.99,-33.202 11.99,-55.336c-0,-19.676 -3.28,-36.174 -9.838,-49.496c-6.558,-13.321 -15.269,-23.876 -26.131,-31.664c-10.862,-7.788 -23.057,-13.322 -36.584,-16.601c-13.526,-3.28 -27.258,-4.919 -41.194,-4.919l-0,-5.534c9.427,0 19.06,-1.332 28.898,-3.996c9.837,-2.665 18.855,-7.173 27.053,-13.527c8.198,-6.353 14.859,-15.166 19.982,-26.438c5.124,-11.273 7.686,-25.517 7.686,-42.732c0,-19.675 -3.279,-35.969 -9.838,-48.881c-6.558,-12.912 -15.986,-22.442 -28.283,-28.59c-12.297,-6.149 -27.053,-9.223 -44.269,-9.223l-71.322,0c-0,-0.41 -0.512,-2.459 -1.537,-6.148c-1.025,-3.689 -2.05,-7.584 -3.074,-11.682c-1.025,-4.099 -1.537,-6.149 -1.537,-6.149Zm55.336,0l-0,430.394l-75.012,-0l0,-430.394l75.012,0Zm-73.167,385.51l-0,44.884l-49.188,-0l0,-6.149l7.993,0c10.657,0 19.778,-3.791 27.361,-11.374c7.583,-7.584 11.579,-16.704 11.989,-27.361l1.845,-0Zm-0,-340.626l-1.845,-0c-0.41,-10.657 -4.406,-19.778 -11.989,-27.361c-7.583,-7.583 -16.704,-11.374 -27.361,-11.374l-7.993,-0l0,-6.149l49.188,0l-0,44.884Z" style="fill-rule:nonzero;"/><path d="M2076.88,1261.71l0,224.807c0,24.183 4.173,45.302 12.518,63.354c8.345,18.053 20.182,32.018 35.509,41.896c15.328,9.878 33.21,14.817 53.647,14.817c21.8,-0 40.533,-4.684 56.202,-14.051c15.668,-9.367 27.845,-22.48 36.531,-39.341c8.685,-16.86 13.028,-36.871 13.028,-60.033l0,-231.449l32.189,0l-0,229.405c-0,27.249 -5.791,51.007 -17.372,71.274c-11.581,20.266 -28.186,36.02 -49.815,47.26c-21.629,11.241 -47.26,16.861 -76.894,16.861c-33.38,-0 -61.907,-5.535 -85.58,-16.605c-23.672,-11.07 -41.64,-26.739 -53.902,-47.005c-12.262,-20.267 -18.393,-44.025 -18.393,-71.274l-0,-229.916l62.332,0Zm-60.799,0l-0,30.656l-1.533,-0c-0,-7.494 -2.64,-13.625 -7.92,-18.393c-5.279,-4.769 -11.666,-7.153 -19.159,-7.153l-8.175,-0l0,-5.11l36.787,0Zm96.053,0l0,5.11l-8.175,-0c-7.493,-0 -13.88,2.384 -19.159,7.153c-5.28,4.768 -7.92,10.899 -7.92,18.393l-1.021,-0l-0,-30.656l36.275,0Zm173.714,0l0,30.656l-1.533,-0c0,-7.494 -2.639,-13.625 -7.919,-18.393c-5.28,-4.769 -11.666,-7.153 -19.16,-7.153l-8.174,-0l-0,-5.11l36.786,0Zm65.909,0l0,5.11l-8.175,-0c-7.493,-0 -13.88,2.384 -19.159,7.153c-5.28,4.768 -7.919,10.899 -7.919,18.393l-1.022,-0l-0,-30.656l36.275,0Z" style="fill-rule:nonzero;"/><path d="M2490.22,1261.71l0,357.647l-62.332,-0l-0,-357.647l62.332,0Zm-60.799,320.349l-0,37.298l-40.874,-0l-0,-5.109l6.642,-0c8.856,-0 16.434,-3.151 22.736,-9.453c6.301,-6.301 9.622,-13.88 9.963,-22.736l1.533,0Zm-0,-283.051l-1.533,-0c-0.341,-8.856 -3.662,-16.435 -9.963,-22.736c-6.302,-6.302 -13.88,-9.452 -22.736,-9.452l-6.642,-0l-0,-5.11l40.874,0l-0,37.298Zm59.267,283.051l1.532,0c0.341,8.856 3.662,16.435 9.963,22.736c6.302,6.302 13.881,9.453 22.737,9.453l6.642,-0l-0,5.109l-40.874,-0l-0,-37.298Zm-0,-283.051l-0,-37.298l40.874,0l-0,5.11l-6.642,-0c-8.856,-0 -16.435,3.15 -22.737,9.452c-6.301,6.301 -9.622,13.88 -9.963,22.736l-1.532,-0Z" style="fill-rule:nonzero;"/><path d="M2679.26,1261.71l0,357.647l-62.333,-0l0,-357.647l62.333,0Zm135.395,337.721l8.685,19.926l-145.613,-0l0,-19.926l136.928,-0Zm35.764,-77.15l-25.546,97.076l-95.542,-0l18.393,-19.926c17.371,-0 32.358,-3.151 44.961,-9.452c12.603,-6.302 23.162,-15.328 31.677,-27.079c8.516,-11.751 15.498,-25.291 20.948,-40.619l5.109,0Zm-231.959,59.778l0,37.298l-40.874,-0l0,-5.109l6.642,-0c8.856,-0 16.435,-3.151 22.736,-9.453c6.302,-6.301 9.623,-13.88 9.963,-22.736l1.533,0Zm0,-283.051l-1.533,-0c-0.34,-8.856 -3.661,-16.435 -9.963,-22.736c-6.301,-6.302 -13.88,-9.452 -22.736,-9.452l-6.642,-0l0,-5.11l40.874,0l0,37.298Zm59.267,-0l0,-37.298l40.874,0l0,5.11l-6.642,-0c-8.856,-0 -16.435,3.15 -22.736,9.452c-6.301,6.301 -9.622,13.88 -9.963,22.736l-1.533,-0Z" style="fill-rule:nonzero;"/><path d="M3059.9,1261.71c38.83,0 72.636,7.239 101.418,21.715c28.782,14.476 51.007,35.168 66.676,62.077c15.668,26.909 23.502,58.586 23.502,95.032c0,36.445 -7.834,68.038 -23.502,94.776c-15.669,26.738 -37.894,47.431 -66.676,62.077c-28.782,14.647 -62.588,21.97 -101.418,21.97l-117.512,-0l-0.511,-19.415l113.936,-0c26.227,-0 48.793,-6.557 67.697,-19.671c18.904,-13.114 33.636,-31.592 44.195,-55.435c10.559,-23.843 15.838,-51.944 15.838,-84.302c0,-32.359 -5.279,-60.46 -15.838,-84.303c-10.559,-23.843 -25.376,-42.321 -44.451,-55.435c-19.074,-13.114 -41.555,-19.67 -67.441,-19.67l-119.046,-0l0,-19.416l123.133,0Zm-79.704,0l-0,357.647l-62.333,-0l0,-357.647l62.333,0Zm-60.8,320.349l0,37.298l-40.874,-0l0,-5.109l6.642,-0c8.856,-0 16.435,-3.151 22.736,-9.453c6.302,-6.301 9.623,-13.88 9.963,-22.736l1.533,0Zm0,-283.051l-1.533,-0c0,-8.856 -3.236,-16.435 -9.707,-22.736c-6.472,-6.302 -14.136,-9.452 -22.992,-9.452l-6.131,-0l-0.511,-5.11l40.874,0l0,37.298Z" style="fill-rule:nonzero;"/><path d="M3389.45,1261.71l-0,357.647l-62.333,-0l-0,-357.647l62.333,0Zm135.394,337.721l8.686,19.926l-145.613,-0l-0,-19.926l136.927,-0Zm-19.415,-166.05l0,19.415l-117.512,-0l-0,-19.415l117.512,-0Zm24.014,-171.671l-0,19.926l-141.526,0l-0,-19.926l141.526,0Zm31.166,260.571l-25.546,97.076l-95.543,-0l18.393,-19.926c17.372,-0 32.359,-3.151 44.962,-9.452c12.602,-6.302 23.161,-15.328 31.677,-27.079c8.515,-11.751 15.498,-25.291 20.948,-40.619l5.109,0Zm-55.18,-70.507l0,43.939l-5.109,0l-0,-5.62c-0,-10.559 -3.577,-19.415 -10.729,-26.568c-7.153,-7.153 -16.009,-10.729 -26.569,-10.729l0,-1.022l42.407,-0Zm0,-61.311l0,43.94l-42.407,-0l0,-1.022c10.56,-0.341 19.416,-4.088 26.569,-11.241c7.152,-7.153 10.729,-16.009 10.729,-26.568l-0,-5.109l5.109,0Zm24.014,-110.359l-0,53.136l-5.11,-0l0,-7.153c0,-12.944 -4.087,-23.588 -12.262,-31.933c-8.175,-8.345 -19.074,-12.688 -32.699,-13.028l0,-1.022l50.071,-0Zm-0,-27.59l-0,14.817l-62.333,-5.621c7.493,0 15.413,-0.51 23.758,-1.532c8.345,-1.022 16.094,-2.214 23.247,-3.577c7.153,-1.362 12.262,-2.725 15.328,-4.087Zm-200.793,329.545l-0,37.298l-40.874,-0l-0,-5.109l6.642,-0c8.856,-0 16.434,-3.151 22.736,-9.453c6.301,-6.301 9.622,-13.88 9.963,-22.736l1.533,0Zm-0,-283.051l-1.533,-0c-0.341,-8.856 -3.662,-16.435 -9.963,-22.736c-6.302,-6.302 -13.88,-9.452 -22.736,-9.452l-6.642,-0l-0,-5.11l40.874,0l-0,37.298Z" style="fill-rule:nonzero;"/><path d="M3797.83,1554.2c-3.651,-6.151 -7.622,-13.022 -11.912,-20.612c-4.428,-7.834 -8.771,-15.413 -13.029,-22.736c-4.257,-7.324 -7.834,-13.88 -10.729,-19.671c-2.895,-5.79 -4.854,-9.878 -5.876,-12.262c-5.449,-9.878 -11.41,-17.882 -17.882,-24.013c-6.472,-6.131 -13.454,-9.538 -20.948,-10.219l0,-5.109c0.682,-0 2.896,0.085 6.642,0.255c3.747,0.171 8.005,0.086 12.773,-0.255c9.197,-0.341 18.479,-2.044 27.846,-5.109c9.367,-3.066 17.797,-8.771 25.29,-17.116c7.494,-8.345 12.944,-20.011 16.35,-34.999c0.681,-3.065 1.362,-6.982 2.044,-11.751c0.681,-4.768 0.851,-9.707 0.511,-14.817c-1.022,-23.843 -7.153,-41.895 -18.394,-54.157c-11.24,-12.263 -25.546,-18.734 -42.917,-19.415c-6.472,-0.341 -13.284,-0.426 -20.437,-0.256c-7.153,0.17 -13.369,0.256 -18.649,0.256l-7.919,-0l-0,299.912c-0,8.856 3.236,16.434 9.707,22.736c6.472,6.301 14.136,9.452 22.992,9.452l6.131,-0l0,5.109l-140.504,-0l0,-5.109l6.642,-0c8.856,-0 16.435,-3.151 22.736,-9.452c6.302,-6.302 9.623,-13.88 9.963,-22.736l0,-283.052c-0.34,-8.856 -3.661,-16.435 -9.963,-22.736c-6.301,-6.301 -13.88,-9.452 -22.736,-9.452l-6.642,-0l0,-5.109l162.985,-0c15.327,-0 29.889,1.873 43.684,5.62c13.795,3.747 25.972,9.537 36.531,17.371c10.559,7.834 18.819,17.797 24.779,29.889c5.961,12.092 8.942,26.483 8.942,43.173c-0,14.987 -3.236,29.804 -9.708,44.451c-6.472,14.646 -16.009,26.823 -28.612,36.531c-12.602,9.707 -28.1,15.242 -46.494,16.605c9.197,3.065 17.968,8.77 26.313,17.115c8.345,8.346 15.242,16.605 20.692,24.78c0.341,0.341 2.47,3.492 6.387,9.452c3.592,5.467 20.242,24.523 24.923,35.346c1.42,1.685 2.377,3.063 2.791,4.077c0.36,0.588 2.614,6.028 6.761,16.32c4.146,10.292 9.285,22.789 15.415,37.491c6.129,14.703 12.53,29.406 19.2,44.108c6.671,14.703 12.531,27.053 17.579,37.051c7.933,15.29 15.234,27.788 21.905,37.491c6.671,9.704 13.792,17.055 21.365,22.054c7.572,4.999 16.226,7.499 25.961,7.499l0,8.821l-44.892,0c-18.75,0 -35.427,-3.235 -50.031,-9.704c-14.603,-6.469 -27.314,-16.173 -38.131,-29.111c-10.817,-12.938 -20.193,-29.111 -28.125,-48.518c-2.164,-5.293 -5.229,-13.38 -9.195,-24.26c-3.967,-10.88 -8.294,-23.083 -12.981,-36.609c-4.688,-13.526 -9.285,-26.612 -13.792,-39.256c-1.91,-5.359 -3.691,-10.48 -5.342,-15.364Z" style="fill-rule:nonzero;"/></g></svg>